name Walk9.mot
datacolumns 19
datarows 27
range 1.85500000 1.98500000
endheader

                time	   L_ground_force_vx	   L_ground_force_vy	   L_ground_force_vz	   L_ground_force_px	   L_ground_force_py	   L_ground_force_pz	   R_ground_force_vx	   R_ground_force_vy	   R_ground_force_vz	   R_ground_force_px	   R_ground_force_py	   R_ground_force_pz	   L_ground_torque_x	   L_ground_torque_y	   L_ground_torque_z	   R_ground_torque_x	   R_ground_torque_y	   R_ground_torque_z	
          1.85500000	         -0.00106839	         -0.00241737	         -0.00098444	         -0.00008936	          0.00000000	         -0.00003337	        -31.69648518	        523.38905175	        -38.85927249	          0.26785159	          0.00000000	          0.09933113	          0.00000000	          0.00005692	          0.00000000	          0.00000000	          0.81574183	          0.00000000	
          1.86000000	         -0.00301613	         -0.00850736	         -0.00082405	         -0.00005615	          0.00000000	         -0.00002149	        -28.89572943	        517.47702988	        -38.62463785	          0.26909386	          0.00000000	          0.09990919	          0.00000000	          0.00003616	          0.00000000	          0.00000000	          0.74905782	          0.00000000	
          1.86500000	         -0.00402664	         -0.01173992	         -0.00065601	         -0.00003041	          0.00000000	         -0.00001217	        -26.18683071	        512.10682874	        -38.43026076	          0.27027113	          0.00000000	          0.10045697	          0.00000000	          0.00001998	          0.00000000	          0.00000000	          0.68353714	          0.00000000	
          1.87000000	         -0.00435620	         -0.01288441	         -0.00049638	         -0.00001150	          0.00000000	         -0.00000524	        -23.57367176	        507.25419478	        -38.26090624	          0.27139079	          0.00000000	          0.10097491	          0.00000000	          0.00000803	          0.00000000	          0.00000000	          0.61976979	          0.00000000	
          1.87500000	         -0.00422302	         -0.01259935	         -0.00035475	          0.00000153	          0.00000000	         -0.00000037	        -21.05852884	        502.89394000	        -38.10552015	          0.27246114	          0.00000000	          0.10146208	          0.00000000	         -0.00000027	          0.00000000	          0.00000000	          0.55777564	          0.00000000	
          1.88000000	         -0.00380362	         -0.01142009	         -0.00023587	          0.00000977	          0.00000000	          0.00000278	        -18.64287019	        499.00488889	        -37.95748979	          0.27349047	          0.00000000	          0.10191689	          0.00000000	         -0.00000557	          0.00000000	          0.00000000	          0.49767793	          0.00000000	
          1.88500000	         -0.00323385	         -0.00976066	         -0.00014098	          0.00001428	          0.00000000	          0.00000457	        -16.32819786	        495.57232229	        -37.81429432	          0.27448546	          0.00000000	          0.10233816	          0.00000000	         -0.00000853	          0.00000000	          0.00000000	          0.43959397	          0.00000000	
          1.89000000	         -0.00261271	         -0.00792455	         -0.00006897	          0.00001605	          0.00000000	          0.00000537	        -14.11495980	        492.58832408	        -37.67680717	          0.27545257	          0.00000000	          0.10272389	          0.00000000	         -0.00000975	          0.00000000	          0.00000000	          0.38349283	          0.00000000	
          1.89500000	         -0.00200775	         -0.00612036	         -0.00001735	          0.00001591	          0.00000000	          0.00000545	        -12.00080595	        490.05436001	        -37.54841775	          0.27639874	          0.00000000	          0.10307298	          0.00000000	         -0.00000976	          0.00000000	          0.00000000	          0.32934514	          0.00000000	
          1.90000000	         -0.00146101	         -0.00447931	          0.00001713	          0.00001456	          0.00000000	          0.00000507	         -9.97969657	        487.98053736	        -37.43393109	          0.27733016	          0.00000000	          0.10338659	          0.00000000	         -0.00000900	          0.00000000	          0.00000000	          0.27714328	          0.00000000	
          1.90500000	         -0.00099485	         -0.00307268	          0.00003789	          0.00001255	          0.00000000	          0.00000443	         -8.04113859	        486.38232975	        -37.33825320	          0.27825042	          0.00000000	          0.10366752	          0.00000000	         -0.00000780	          0.00000000	          0.00000000	          0.22736420	          0.00000000	
          1.91000000	         -0.00061723	         -0.00192763	          0.00004820	          0.00001026	          0.00000000	          0.00000367	         -6.17106756	        485.27831903	        -37.26611346	          0.27916201	          0.00000000	          0.10391957	          0.00000000	         -0.00000641	          0.00000000	          0.00000000	          0.18080162	          0.00000000	
          1.91500000	         -0.00032625	         -0.00104087	          0.00005100	          0.00000798	          0.00000000	          0.00000289	         -4.35484790	        484.68577847	        -37.22218072	          0.28006494	          0.00000000	          0.10414584	          0.00000000	         -0.00000501	          0.00000000	          0.00000000	          0.13813119	          0.00000000	
          1.92000000	         -0.00011385	         -0.00038990	          0.00004877	          0.00000589	          0.00000000	          0.00000216	         -2.58024341	        484.62097056	        -37.21125620	          0.28095685	          0.00000000	          0.10434797	          0.00000000	         -0.00000372	          0.00000000	          0.00000000	          0.09969027	          0.00000000	
          1.92500000	          0.00003136	          0.00005840	          0.00004348	          0.00000409	          0.00000000	          0.00000152	         -0.83883509	        485.10117338	        -37.23810141	          0.28183884	          0.00000000	          0.10452901	          0.00000000	         -0.00000260	          0.00000000	          0.00000000	          0.06546670	          0.00000000	
          1.93000000	          0.00012200	          0.00034127	          0.00003664	          0.00000260	          0.00000000	          0.00000099	          0.87421429	        486.13997336	        -37.30789453	          0.28271469	          0.00000000	          0.10469163	          0.00000000	         -0.00000167	          0.00000000	          0.00000000	          0.03539772	          0.00000000	
          1.93500000	          0.00017048	          0.00049567	          0.00002937	          0.00000145	          0.00000000	          0.00000057	          2.56148581	        487.74567099	        -37.42615708	          0.28358830	          0.00000000	          0.10483666	          0.00000000	         -0.00000095	          0.00000000	          0.00000000	          0.00938407	          0.00000000	
          1.94000000	          0.00018808	          0.00055549	          0.00002237	          0.00000059	          0.00000000	          0.00000026	          4.22469162	        489.92312354	        -37.59806535	          0.28446406	          0.00000000	          0.10496382	          0.00000000	         -0.00000041	          0.00000000	          0.00000000	         -0.01302188	          0.00000000	
          1.94500000	          0.00018450	          0.00054991	          0.00001612	         -0.00000000	          0.00000000	          0.00000004	          5.86618700	        492.67348520	        -37.82792290	          0.28534479	          0.00000000	          0.10507227	          0.00000000	         -0.00000003	          0.00000000	          0.00000000	         -0.03232155	          0.00000000	
          1.95000000	          0.00016761	          0.00050285	          0.00001084	         -0.00000039	          0.00000000	         -0.00000011	          7.49054562	        495.99651573	        -38.11880559	          0.28623307	          0.00000000	          0.10516132	          0.00000000	          0.00000022	          0.00000000	          0.00000000	         -0.04864680	          0.00000000	
          1.95500000	          0.00014352	          0.00043290	          0.00000659	         -0.00000060	          0.00000000	         -0.00000019	          9.10527222	        499.89175840	        -38.47156775	          0.28713316	          0.00000000	          0.10522899	          0.00000000	          0.00000036	          0.00000000	          0.00000000	         -0.06166263	          0.00000000	
          1.96000000	          0.00011672	          0.00035380	          0.00000335	         -0.00000069	          0.00000000	         -0.00000023	         10.72021125	        504.35897452	        -38.88444424	          0.28804907	          0.00000000	          0.10527238	          0.00000000	          0.00000042	          0.00000000	          0.00000000	         -0.07104783	          0.00000000	
          1.96500000	          0.00009031	          0.00027510	          0.00000100	         -0.00000069	          0.00000000	         -0.00000024	         12.34645226	        509.40032737	        -39.35252028	          0.28898256	          0.00000000	          0.10529037	          0.00000000	          0.00000043	          0.00000000	          0.00000000	         -0.07659409	          0.00000000	
          1.97000000	          0.00006622	          0.00020287	         -0.00000058	         -0.00000064	          0.00000000	         -0.00000022	         13.99598897	        515.01972197	        -39.86851711	          0.28993517	          0.00000000	          0.10528378	          0.00000000	          0.00000040	          0.00000000	          0.00000000	         -0.07802708	          0.00000000	
          1.97500000	          0.00004554	          0.00014051	         -0.00000155	         -0.00000056	          0.00000000	         -0.00000020	         15.68057435	        521.22070467	        -40.42334423	          0.29090805	          0.00000000	          0.10525277	          0.00000000	          0.00000035	          0.00000000	          0.00000000	         -0.07525108	          0.00000000	
          1.98000000	          0.00002868	          0.00008940	         -0.00000205	         -0.00000046	          0.00000000	         -0.00000016	         17.41133598	        528.00640103	        -41.00712073	          0.29189980	          0.00000000	          0.10519731	          0.00000000	          0.00000029	          0.00000000	          0.00000000	         -0.06849957	          0.00000000	
          1.98500000	          0.00001560	          0.00004956	         -0.00000221	         -0.00000036	          0.00000000	         -0.00000013	         19.20082947	        535.37647010	        -41.60952295	          0.29290423	          0.00000000	          0.10511898	          0.00000000	          0.00000023	          0.00000000	          0.00000000	         -0.05785672	          0.00000000	
